<?xml version="1.0" standalone="no"?><!DOCTYPE svg PUBLIC "-//W3C//DTD SVG 1.1//EN" "http://www.w3.org/Graphics/SVG/1.1/DTD/svg11.dtd"><svg class="icon" width="64px" height="64.00px" viewBox="0 0 1024 1024" version="1.1" xmlns="http://www.w3.org/2000/svg"><path d="M895.616516 69.124334 132.425543 69.124334c-32.42141 0-58.707077 26.28669-58.707077 58.706053l0 763.191996c0 32.42141 26.28669 58.707077 58.707077 58.707077l763.190973 0c32.42141 0 58.707077-26.28669 58.707077-58.707077l0-763.191996C954.323593 95.411023 928.036903 69.124334 895.616516 69.124334zM803.657104 467.803405c-1.118474 22.101367-3.640923 44.088124-7.567349 65.988924-3.898797 21.900799-9.603729 43.2265-17.056468 64.010873-7.452739 20.782326-16.768919 39.702234-27.949562 56.729026-11.178597 17.027815-24.423249 31.531134-39.702234 43.514049-15.276938 11.982916-32.993438 20.208251-53.115732 24.708751-17.143449 3.727904-33.165354 4.38589-48.072879 1.979074-14.905478-2.466168-28.607548-7.311523-41.107233-14.619976-12.468986-7.2798-23.935132-16.568351-34.369785-27.777647-10.43363-11.235902-19.950378-23.963785-28.52159-38.211277-4.099365 11.982916-9.029654 22.932292-14.81952 32.852222-5.79089 9.91686-12.756535 18.545378-20.954241 25.856901-8.198729 7.2798-17.715477 12.898775-28.522614 16.825201-10.80816 3.927449-22.933315 5.704932-36.347836 5.332449-19.750833-0.373507-36.72032-5.332449-50.881854-14.877849-14.160511-9.5454-26.28669-22.101367-36.347836-37.609573-10.06217-15.536858-18.258852-33.222659-24.595164-53.088102-6.335289-19.836791-11.552104-40.331567-15.650445-61.488423-4.099365-21.126156-7.366781-42.395576-9.774621-63.7223-2.436492-21.326724-4.672416-41.077557-6.707772-59.251475-2.064009-18.145266-4.299933-34.05563-6.706749-47.729048-2.436492-13.644765-5.504364-23.677259-9.231245-30.040177-2.235924-3.354398-4.758374-5.618974-7.568373-6.736425-2.780323-1.118474-5.561669-2.149966-8.370645-3.096525-2.808976-0.916882-5.302773-1.948375-7.538697-3.066849-2.236947-1.147126-3.926426-3.38305-5.0449-6.736425-1.863441-5.245468-0.74599-11.43647 3.353374-18.546402s10.06217-14.131859 17.888416-21.068851c7.825222-6.90834 17.141402-13.186324 27.976168-18.804275 10.778484-5.618974 21.786189-9.546424 32.965809-11.781324 11.17962-2.264577 22.187325-2.264577 32.994462 0 10.807137 2.235924 20.323884 7.68196 28.522614 16.281825 8.943696 9.373485 15.564487 21.700231 19.836791 37.065174 4.299933 15.363919 7.166213 32.391734 8.656147 51.081399 1.490957 18.74697 1.978051 38.382169 1.404999 58.96495-0.544399 20.61041-1.404999 40.905642-2.493797 60.943001-1.147126 20.037359-1.978051 39.129182-2.523473 57.273425-0.573051 18.173918-0.11461 33.882692 1.376347 47.154973 1.490957 13.300934 4.499477 23.706935 8.972349 31.188326 4.471848 7.482415 11.17962 10.663874 20.123316 9.5454 3.726881-0.37146 7.826246-2.350534 12.298094-5.9055 4.472871-3.554966 8.943696-8.800433 13.415544-15.708773 4.471848-6.936993 8.656147-15.738449 12.583596-26.400277 3.898797-10.664897 7.366781-23.50739 10.348696-38.470173 0-0.373507-0.11461-0.74599-0.286526-1.118474-0.199545-0.37146-0.286526-0.945535-0.286526-1.691525-10.43363-34.053584-16.309454-67.105351-17.599843-99.124602-1.319042-31.990598 1.118474-59.968813 7.252171-83.932598 6.163373-23.963785 15.852036-42.310641 29.095665-55.038524 13.214976-12.726859 29.15297-17.026792 47.786353-12.898775 15.650445 3.354398 26.91807 8.140401 33.82641 14.304797 6.907317 6.16235 11.17962 13.959943 12.869099 23.305799 1.662873 9.373485 1.577938 20.408819-0.285502 33.136701-1.863441 12.727882-3.812839 27.232225-5.876847 43.514049-2.034333 16.281825-3.354398 34.627658-3.898797 55.037501-0.573051 20.409842 1.404999 42.769083 5.876847 67.106374 4.099365 24.337291 8.197706 43.887556 12.297071 58.678424 4.098341 14.791891 8.28571 26.28669 12.58462 34.542724 4.272303 8.226359 8.571213 13.557784 12.842493 15.995299 4.298909 2.436492 8.856715 3.439332 13.70207 3.095501 10.434653-0.774643 18.805298-7.969509 25.169239-21.642926 6.334265-13.644765 11.17962-30.671557 14.532995-51.081399s5.303796-42.683125 5.875824-66.819848c0.545422-24.164353 0.258896-46.982034-0.859577-68.51035-1.118474-21.527292-2.781346-40.246633-5.016247-56.155974-2.235924-15.908318-4.672416-26.113751-7.280824-30.614252-3.352351-5.991458-7.365758-10.463306-12.011568-13.472849-4.671393-2.981914-9.027607-5.618974-13.126972-7.854898-4.128017-2.264577-7.567349-4.499477-10.347672-6.736425-2.809999-2.263553-4.213975-5.446036-4.213975-9.5454 0-7.883551 3.095501-14.791891 9.230222-20.782326 6.161327-5.991458 14.074553-10.864442 23.76424-14.619976 9.68764-3.726881 20.494777-5.962805 32.450063-6.736425 11.923564-0.744967 23.936155 0.287549 36.059264 3.096525 12.096503 2.808976 23.476691 7.68196 34.084283 14.5903 10.635221 6.936993 19.665899 16.396435 27.118638 28.378327 5.588275 8.973372 10.347672 21.24179 14.276145 36.778648 3.89675 15.536858 6.705726 32.936133 8.368598 52.228525C804.489052 425.035346 804.775578 445.731714 803.657104 467.803405z" fill="#000000" /></svg>